<svg width="161" height="160" viewBox="0 0 161 160" fill="none" xmlns="http://www.w3.org/2000/svg">
<path d="M52.325 40H36.225C34.743 40 33.5416 41.1939 33.5416 42.6667V117.333C33.5416 118.806 34.743 120 36.225 120H52.325C53.8069 120 55.0083 118.806 55.0083 117.333V42.6667C55.0083 41.1939 53.8069 40 52.325 40Z" fill="white"/>
<path d="M76.475 40H60.375C58.893 40 57.6917 41.1939 57.6917 42.6667V117.333C57.6917 118.806 58.893 120 60.375 120H76.475C77.9569 120 79.1583 118.806 79.1583 117.333V42.6667C79.1583 41.1939 77.9569 40 76.475 40Z" fill="white"/>
<path d="M100.625 40H84.525C83.043 40 81.8417 41.1939 81.8417 42.6667V117.333C81.8417 118.806 83.043 120 84.525 120H100.625C102.107 120 103.308 118.806 103.308 117.333V42.6667C103.308 41.1939 102.107 40 100.625 40Z" fill="white"/>
<path d="M124.775 40H108.675C107.193 40 105.992 41.1939 105.992 42.6667V117.333C105.992 118.806 107.193 120 108.675 120H124.775C126.257 120 127.458 118.806 127.458 117.333V42.6667C127.458 41.1939 126.257 40 124.775 40Z" fill="white"/>
<path d="M61.7167 40H50.9833C49.8719 40 48.9708 40.8954 48.9708 42V88.6667C48.9708 89.7712 49.8719 90.6667 50.9833 90.6667H61.7167C62.8281 90.6667 63.7292 89.7712 63.7292 88.6667V42C63.7292 40.8954 62.8281 40 61.7167 40Z" fill="black"/>
<path d="M85.8667 40H75.1333C74.0219 40 73.1208 40.8954 73.1208 42V88.6667C73.1208 89.7712 74.0219 90.6667 75.1333 90.6667H85.8667C86.9782 90.6667 87.8792 89.7712 87.8792 88.6667V42C87.8792 40.8954 86.9782 40 85.8667 40Z" fill="black"/>
<path d="M110.017 40H99.2834C98.1719 40 97.2709 40.8954 97.2709 42V88.6667C97.2709 89.7712 98.1719 90.6667 99.2834 90.6667H110.017C111.128 90.6667 112.029 89.7712 112.029 88.6667V42C112.029 40.8954 111.128 40 110.017 40Z" fill="black"/>
</svg>
